<mxfile host="app.diagrams.net" modified="2023-12-13T16:20:37.097Z" agent="Mozilla/5.0 (Windows NT 10.0; WOW64) AppleWebKit/537.36 (KHTML, like Gecko) Chrome/109.0.0.0 Safari/537.36" version="22.1.8" etag="k65f3PUCnTXmef80hjuw" type="github">
  <diagram name="Trang-1" id="pjU9L12F9OEndrFQ8qn7">
    <mxGraphModel>
      <root>
        <mxCell id="0" />
        <mxCell id="1" parent="0" />
      </root>
    </mxGraphModel>
  </diagram>
</mxfile>
